<?xml version="1.0" encoding="UTF-8" standalone="no"?>
<!-- Created with Inkscape (http://www.inkscape.org/) -->

<svg
   xmlns:dc="http://purl.org/dc/elements/1.1/"
   xmlns:cc="http://creativecommons.org/ns#"
   xmlns:rdf="http://www.w3.org/1999/02/22-rdf-syntax-ns#"
   xmlns:svg="http://www.w3.org/2000/svg"
   xmlns="http://www.w3.org/2000/svg"
   xmlns:sodipodi="http://sodipodi.sourceforge.net/DTD/sodipodi-0.dtd"
   xmlns:inkscape="http://www.inkscape.org/namespaces/inkscape"
   width="8.5in"
   height="11in"
   viewBox="0 0 215.9 279.4"
   version="1.1"
   id="svg8"
   inkscape:version="0.92.4 (5da689c313, 2019-01-14)"
   sodipodi:docname="portada.svg"
   inkscape:export-filename="/home/jhonny/Dropbox/LaTeX/sep-dic-2019/Calculo3/portada.pdf.png"
   inkscape:export-xdpi="96"
   inkscape:export-ydpi="96">
  <defs
     id="defs2">
    <filter
       style="color-interpolation-filters:sRGB;"
       inkscape:label="Color Shift"
       id="filter258">
      <feColorMatrix
         type="hueRotate"
         values="69"
         result="color1"
         id="feColorMatrix254" />
      <feColorMatrix
         type="saturate"
         values="0.98"
         result="color2"
         id="feColorMatrix256" />
    </filter>
  </defs>
  <sodipodi:namedview
     id="base"
     pagecolor="#ffffff"
     bordercolor="#666666"
     borderopacity="1.0"
     inkscape:pageopacity="1"
     inkscape:pageshadow="2"
     inkscape:zoom="0.5"
     inkscape:cx="220.29605"
     inkscape:cy="527.73955"
     inkscape:document-units="mm"
     inkscape:current-layer="text1100"
     showgrid="false"
     inkscape:window-width="1366"
     inkscape:window-height="703"
     inkscape:window-x="0"
     inkscape:window-y="28"
     inkscape:window-maximized="1"
     units="in"
     showguides="true"
     inkscape:guide-bbox="true">
    <sodipodi:guide
       position="-47.625,286.88393"
       orientation="-0.70710678,0.70710678"
       id="guide844"
       inkscape:locked="false" />
    <sodipodi:guide
       position="11.717262,230.56548"
       orientation="1,0"
       id="guide846"
       inkscape:locked="false" />
    <sodipodi:guide
       position="24.054257,269.94222"
       orientation="0,1"
       id="guide910"
       inkscape:locked="false" />
    <sodipodi:guide
       position="158.7581,10.156242"
       orientation="0,1"
       id="guide912"
       inkscape:locked="false" />
    <sodipodi:guide
       position="204.72846,203.65938"
       orientation="1,0"
       id="guide914"
       inkscape:locked="false" />
  </sodipodi:namedview>
  <metadata
     id="metadata5">
    <rdf:RDF>
      <cc:Work
         rdf:about="">
        <dc:format>image/svg+xml</dc:format>
        <dc:type
           rdf:resource="http://purl.org/dc/dcmitype/StillImage" />
        <dc:title></dc:title>
      </cc:Work>
    </rdf:RDF>
  </metadata>
  <g
     inkscape:label="Capa 1"
     inkscape:groupmode="layer"
     id="layer1"
     transform="translate(0,-17.6)">
    <text
       xml:space="preserve"
       style="font-style:normal;font-weight:normal;font-size:10.58333302px;line-height:1.25;font-family:sans-serif;letter-spacing:0px;word-spacing:0px;fill:#000000;fill-opacity:1;stroke:none;stroke-width:0.26458332"
       x="50.648811"
       y="284.90475"
       id="text884"><tspan
         sodipodi:role="line"
         id="tspan882"
         x="50.648811"
         y="294.26852"
         style="stroke-width:0.26458332" /></text>
    <text
       xml:space="preserve"
       style="font-style:normal;font-variant:normal;font-weight:normal;font-stretch:normal;font-size:5.99722242px;line-height:1.25;font-family:Cabin;-inkscape-font-specification:Cabin;font-variant-ligatures:normal;font-variant-caps:normal;font-variant-numeric:normal;font-feature-settings:normal;text-align:start;letter-spacing:0.13229167px;word-spacing:0px;writing-mode:lr-tb;text-anchor:start;fill:#1a1a1a;fill-opacity:1;stroke:none;stroke-width:0.26458332"
       x="82.691025"
       y="215.92393"
       id="text838"><tspan
         sodipodi:role="line"
         id="tspan836"
         x="82.691025"
         y="215.92393"
         style="font-style:normal;font-variant:normal;font-weight:normal;font-stretch:normal;font-size:5.99722242px;font-family:Coelacanth;-inkscape-font-specification:'Coelacanth, Normal';font-variant-ligatures:normal;font-variant-caps:small-caps;font-variant-numeric:normal;font-feature-settings:normal;text-align:start;letter-spacing:0.13229167px;writing-mode:lr-tb;text-anchor:start;fill:#1a1a1a;stroke-width:0.26458332">Jhonny Lanzuisi</tspan></text>
    <text
       xml:space="preserve"
       style="font-style:normal;font-variant:normal;font-weight:normal;font-stretch:normal;font-size:8.46666622px;line-height:1.25;font-family:Coelacanth;-inkscape-font-specification:Coelacanth;font-variant-ligatures:normal;font-variant-caps:small-caps;font-variant-numeric:normal;font-feature-settings:normal;text-align:start;letter-spacing:0.39687499px;word-spacing:0px;writing-mode:lr-tb;text-anchor:start;fill:#000000;fill-opacity:1;stroke:none;stroke-width:0.26458332"
       x="92.225685"
       y="68.012741"
       id="text842"><tspan
         sodipodi:role="line"
         id="tspan840"
         x="92.225685"
         y="68.012741"
         style="font-style:normal;font-variant:normal;font-weight:normal;font-stretch:normal;font-size:5.29166698px;font-family:Coelacanth;-inkscape-font-specification:Coelacanth;font-variant-ligatures:normal;font-variant-caps:small-caps;font-variant-numeric:normal;font-feature-settings:normal;text-align:start;letter-spacing:0.39687499px;writing-mode:lr-tb;text-anchor:start;fill:#000000;stroke-width:0.26458332">NOTAS DE</tspan></text>
    <text
       xml:space="preserve"
       style="font-style:normal;font-variant:normal;font-weight:300;font-stretch:normal;font-size:9.87777805px;line-height:1.25;font-family:Coelacanth;-inkscape-font-specification:'Coelacanth Light';font-variant-ligatures:normal;font-variant-caps:normal;font-variant-numeric:normal;font-feature-settings:normal;text-align:start;letter-spacing:0.5291667px;word-spacing:0px;writing-mode:lr-tb;text-anchor:start;fill:#1a1a1a;fill-opacity:1;stroke:none;stroke-width:0.26458332"
       x="77.703308"
       y="83.156258"
       id="text850"><tspan
         sodipodi:role="line"
         id="tspan848"
         x="77.703308"
         y="83.156258"
         style="font-style:normal;font-variant:normal;font-weight:300;font-stretch:normal;font-size:9.87777805px;font-family:Coelacanth;-inkscape-font-specification:'Coelacanth Light';font-variant-ligatures:normal;font-variant-caps:normal;font-variant-numeric:normal;font-feature-settings:normal;text-align:start;letter-spacing:0.5291667px;writing-mode:lr-tb;text-anchor:start;fill:#1a1a1a;stroke-width:0.26458332">ANÁLISIS I</tspan></text>
    <text
       xml:space="preserve"
       style="font-style:normal;font-variant:normal;font-weight:normal;font-stretch:normal;font-size:7.76111126px;line-height:6.4000001px;font-family:ETbb;-inkscape-font-specification:ETbb;font-variant-ligatures:normal;font-variant-caps:normal;font-variant-numeric:normal;font-feature-settings:normal;text-align:start;letter-spacing:0px;word-spacing:0px;writing-mode:lr-tb;text-anchor:start;fill:#000000;fill-opacity:1;stroke:none;stroke-width:0.26458332"
       x="108.12485"
       y="99.896835"
       id="text838-5"><tspan
         sodipodi:role="line"
         id="tspan836-1"
         x="108.12485"
         y="99.896835"
         style="font-style:normal;font-variant:normal;font-weight:normal;font-stretch:normal;font-size:5.64444447px;line-height:6.4000001px;font-family:ETbb;-inkscape-font-specification:ETbb;font-variant-ligatures:normal;font-variant-caps:normal;font-variant-numeric:normal;font-feature-settings:normal;text-align:center;writing-mode:lr-tb;text-anchor:middle;fill:#000000;stroke-width:0.26458332"><tspan
   style="-inkscape-font-specification:Coelacanth;font-family:Coelacanth;font-weight:normal;font-style:normal;font-stretch:normal;font-variant:normal"
   id="tspan852">N</tspan>úmeros <tspan
   style="-inkscape-font-specification:Coelacanth;font-family:Coelacanth;font-weight:normal;font-style:normal;font-stretch:normal;font-variant:normal"
   id="tspan854">R</tspan>eales,</tspan><tspan
         sodipodi:role="line"
         x="108.12485"
         y="106.93184"
         style="font-style:normal;font-variant:normal;font-weight:normal;font-stretch:normal;font-size:5.64444447px;line-height:6.4000001px;font-family:ETbb;-inkscape-font-specification:ETbb;font-variant-ligatures:normal;font-variant-caps:normal;font-variant-numeric:normal;font-feature-settings:normal;text-align:center;writing-mode:lr-tb;text-anchor:middle;fill:#000000;stroke-width:0.26458332"
         id="tspan883"><tspan
   style="-inkscape-font-specification:Coelacanth;font-family:Coelacanth;font-weight:normal;font-style:normal;font-stretch:normal;font-variant:normal"
   id="tspan857">S</tspan>ucesiones &amp; <tspan
   style="-inkscape-font-specification:Coelacanth;font-family:Coelacanth;font-weight:normal;font-style:normal;font-stretch:normal;font-variant:normal"
   id="tspan859">S</tspan>eries,</tspan><tspan
         sodipodi:role="line"
         x="108.12485"
         y="113.96684"
         style="font-style:normal;font-variant:normal;font-weight:normal;font-stretch:normal;font-size:5.64444447px;line-height:6.4000001px;font-family:ETbb;-inkscape-font-specification:ETbb;font-variant-ligatures:normal;font-variant-caps:normal;font-variant-numeric:normal;font-feature-settings:normal;text-align:center;writing-mode:lr-tb;text-anchor:middle;fill:#000000;stroke-width:0.26458332"
         id="tspan885"><tspan
   style="-inkscape-font-specification:Coelacanth;font-family:Coelacanth;font-weight:normal;font-style:normal;font-stretch:normal;font-variant:normal"
   id="tspan865">L</tspan>ímites, <tspan
   style="-inkscape-font-specification:Coelacanth;font-family:Coelacanth;font-weight:normal;font-style:normal;font-stretch:normal;font-variant:normal"
   id="tspan863">C</tspan>ontinuidad, <tspan
   style="-inkscape-font-specification:Coelacanth;font-family:Coelacanth;font-weight:normal;font-style:normal;font-stretch:normal;font-variant:normal"
   id="tspan861">D</tspan>erivabilidad.</tspan></text>
    <text
       xml:space="preserve"
       style="font-style:normal;font-variant:normal;font-weight:normal;font-stretch:normal;font-size:4.93888903px;line-height:0;font-family:'CMU Concrete';-inkscape-font-specification:'CMU Concrete';font-variant-ligatures:normal;font-variant-caps:normal;font-variant-numeric:normal;font-feature-settings:normal;text-align:start;letter-spacing:0px;word-spacing:0px;writing-mode:lr-tb;text-anchor:start;fill:#000000;fill-opacity:1;stroke:none;stroke-width:0.26458332"
       x="72.923935"
       y="242.65152"
       id="text872"><tspan
         sodipodi:role="line"
         id="tspan870"
         x="72.923935"
         y="242.65152"
         style="font-style:normal;font-variant:normal;font-weight:normal;font-stretch:normal;font-size:4.23333311px;line-height:0;font-family:ETbb;-inkscape-font-specification:ETbb;font-variant-ligatures:normal;font-variant-caps:normal;font-variant-numeric:normal;font-feature-settings:normal;text-align:start;letter-spacing:0px;writing-mode:lr-tb;text-anchor:start;fill:#000000;stroke-width:0.26458332"><tspan
   style="font-style:normal;font-variant:normal;font-weight:normal;font-stretch:normal;line-height:0;font-family:Coelacanth;-inkscape-font-specification:Coelacanth;letter-spacing:0px"
   id="tspan879">U</tspan>niversidad <tspan
   style="font-style:normal;font-variant:normal;font-weight:normal;font-stretch:normal;line-height:0;font-family:Coelacanth;-inkscape-font-specification:Coelacanth;letter-spacing:0px"
   id="tspan881">S</tspan>imón <tspan
   style="font-style:normal;font-variant:normal;font-weight:normal;font-stretch:normal;line-height:0;font-family:Coelacanth;-inkscape-font-specification:Coelacanth;letter-spacing:0px"
   id="tspan884">B</tspan>olívar, <tspan
   style="font-style:normal;font-variant:normal;font-weight:normal;font-stretch:normal;font-size:4.23333311px;line-height:0;font-family:ETbb;-inkscape-font-specification:ETbb;font-variant-ligatures:normal;font-variant-caps:small-caps;font-variant-numeric:normal;font-feature-settings:normal;text-align:start;letter-spacing:0px;writing-mode:lr-tb;text-anchor:start"
   id="tspan875">ene</tspan><tspan
   style="font-style:normal;font-variant:normal;font-weight:normal;font-stretch:normal;font-size:4.23333311px;line-height:0;font-family:ETbb;-inkscape-font-specification:ETbb;font-variant-ligatures:normal;font-variant-caps:small-caps;font-variant-numeric:normal;font-feature-settings:normal;text-align:start;letter-spacing:0px;writing-mode:lr-tb;text-anchor:start"
   id="tspan856">-mar</tspan> <tspan
   style="font-style:normal;font-variant:normal;font-weight:normal;font-stretch:normal;font-size:4.23333311px;line-height:0;font-family:ETbb;-inkscape-font-specification:ETbb;font-variant-ligatures:normal;font-variant-caps:normal;font-variant-numeric:oldstyle-nums proportional-nums;font-feature-settings:normal;text-align:start;letter-spacing:0px;writing-mode:lr-tb;text-anchor:start"
   id="tspan877">2020</tspan></tspan></text>
    <g
       aria-label="Caracas, Venezuela"
       style="font-style:normal;font-variant:normal;font-weight:normal;font-stretch:normal;font-size:4.93888903px;line-height:1.25;font-family:'CMU Concrete';-inkscape-font-specification:'CMU Concrete';font-variant-ligatures:normal;font-variant-caps:normal;font-variant-numeric:normal;font-feature-settings:normal;text-align:start;letter-spacing:0px;word-spacing:0px;writing-mode:lr-tb;text-anchor:start;fill:#000000;fill-opacity:1;stroke:none;stroke-width:0.26458332"
       id="text872-0">
      <g
         id="g1096">
        <path
           id="path1033"
           style="font-style:normal;font-variant:normal;font-weight:normal;font-stretch:normal;font-family:Coelacanth;-inkscape-font-specification:Coelacanth"
           d="m 92.495556,248.69263 c 0,0.89324 0.740833,1.52824 1.672166,1.52824 0.3937,0 0.719667,-0.10584 0.986367,-0.23707 0.0508,-0.19897 0.08467,-0.30903 0.122767,-0.508 l -0.1143,-0.0339 c -0.156634,0.37677 -0.503767,0.60114 -0.935567,0.60114 -0.651933,0 -1.2954,-0.5461 -1.2954,-1.4351 0,-0.81704 0.537633,-1.27847 1.214967,-1.27847 0.2794,0 0.461433,0.055 0.690033,0.1905 0.143933,0.0889 0.09313,0.24977 0.156633,0.4064 0.135467,0 0.1397,-0.0296 0.1397,-0.1143 0,-0.0931 -0.0042,-0.24977 0.156634,-0.50377 l -0.1143,-0.0593 c -0.0635,0.0212 -0.135467,0.0466 -0.309034,0 -0.249766,-0.072 -0.397933,-0.0889 -0.6604,-0.0889 -1.185333,0 -1.710266,0.78316 -1.710266,1.53246 z" />
        <path
           id="path1035"
           style="font-style:normal;font-variant:normal;font-weight:normal;font-stretch:normal;font-size:4.23333311px;font-family:ETbb;-inkscape-font-specification:ETbb;font-variant-ligatures:normal;font-variant-caps:normal;font-variant-numeric:normal;font-feature-settings:normal;text-align:start;letter-spacing:0px;writing-mode:lr-tb;text-anchor:start;fill:#000000;stroke-width:0.26458332"
           d="m 97.186883,249.80177 c 0.0085,-0.0169 0.0127,-0.0339 0.0127,-0.0466 0,-0.0296 -0.01693,-0.0508 -0.03387,-0.0508 -0.0085,0 -0.0127,0.004 -0.02117,0.0127 -0.0085,0.008 -0.03387,0.0296 -0.05927,0.0593 -0.03387,0.0381 -0.135467,0.14816 -0.186267,0.14816 -0.02117,0 -0.0254,-0.0254 -0.0254,-0.0593 0,-0.0762 0.03387,-0.20744 0.0381,-0.22437 l 0.258233,-1.3081 c -0.0042,-0.0339 -0.0127,-0.0381 -0.0254,-0.0381 -0.258233,0.004 -0.478366,0.0508 -0.7112,0.18627 -0.474133,0.27516 -0.817033,0.8128 -0.817033,1.26153 0,0.24553 0.122767,0.47413 0.270933,0.47413 0.156634,0 0.5715,-0.44026 0.6731,-0.5461 0.0254,-0.0296 0.0635,-0.055 0.0508,0.0127 -0.02117,0.10584 -0.04657,0.20744 -0.04657,0.32174 0,0.11853 0.03387,0.21166 0.131233,0.21166 0.148167,0 0.414867,-0.3302 0.491067,-0.41486 z m -0.364067,-1.19804 -0.169333,0.84667 c -0.08043,0.0762 -0.5461,0.51223 -0.605367,0.51223 -0.07197,0 -0.1397,-0.127 -0.1397,-0.31326 0,-0.38947 0.1651,-0.76624 0.4191,-0.93557 0.127,-0.0889 0.2667,-0.14817 0.4699,-0.16933 0.04657,-0.004 0.03387,0.0339 0.0254,0.0593 z" />
        <path
           id="path1037"
           style="font-style:normal;font-variant:normal;font-weight:normal;font-stretch:normal;font-size:4.23333311px;font-family:ETbb;-inkscape-font-specification:ETbb;font-variant-ligatures:normal;font-variant-caps:normal;font-variant-numeric:normal;font-feature-settings:normal;text-align:start;letter-spacing:0px;writing-mode:lr-tb;text-anchor:start;fill:#000000;stroke-width:0.26458332"
           d="m 98.603726,248.2947 c -0.283633,0 -0.550333,0.6858 -0.651933,0.96097 -0.02117,0.0635 -0.03387,0.0889 -0.0381,0.0889 0,0 -0.0042,0 -0.0042,-0.004 0,-0.0169 0.0085,-0.0635 0.0254,-0.127 0.01693,-0.0677 0.02963,-0.13123 0.04233,-0.2032 0.02117,-0.10583 0.0508,-0.2413 0.07197,-0.3937 0.0085,-0.0593 0.02117,-0.1143 0.02117,-0.16933 0,-0.0889 -0.02117,-0.1524 -0.09737,-0.1524 -0.09737,0 -0.249767,0.15663 -0.524934,0.49953 -0.01693,0.0169 -0.02117,0.0296 -0.02117,0.0423 0,0.0254 0.01693,0.0423 0.0381,0.0423 0.01693,0 0.03387,-0.008 0.0508,-0.0254 0.01693,-0.0254 0.173566,-0.2286 0.211666,-0.2286 0.0254,0 0.0381,0.0423 0.0381,0.0847 0,0.0127 -0.0042,0.0212 -0.0042,0.0339 l -0.232833,1.37584 c -0.0085,0.0466 -0.0085,0.0974 0.0508,0.0974 h 0.118533 c 0.05927,0 0.0889,-0.0339 0.09737,-0.0762 0.0508,-0.22013 0.07197,-0.38946 0.156633,-0.60536 0.08043,-0.22014 0.275167,-0.84667 0.554567,-0.889 l 0.08043,0.0296 c 0.02117,0.004 0.0381,0.008 0.05503,0.008 0.08467,0 0.122767,-0.0804 0.122767,-0.2032 0,-0.13547 -0.06773,-0.18627 -0.160867,-0.18627 z" />
        <path
           id="path1039"
           style="font-style:normal;font-variant:normal;font-weight:normal;font-stretch:normal;font-size:4.23333311px;font-family:ETbb;-inkscape-font-specification:ETbb;font-variant-ligatures:normal;font-variant-caps:normal;font-variant-numeric:normal;font-feature-settings:normal;text-align:start;letter-spacing:0px;writing-mode:lr-tb;text-anchor:start;fill:#000000;stroke-width:0.26458332"
           d="m 100.33708,249.80177 c 0.008,-0.0169 0.0127,-0.0339 0.0127,-0.0466 0,-0.0296 -0.0169,-0.0508 -0.0339,-0.0508 -0.008,0 -0.0127,0.004 -0.0212,0.0127 -0.008,0.008 -0.0339,0.0296 -0.0593,0.0593 -0.0339,0.0381 -0.13547,0.14816 -0.18627,0.14816 -0.0212,0 -0.0254,-0.0254 -0.0254,-0.0593 0,-0.0762 0.0339,-0.20744 0.0381,-0.22437 l 0.25823,-1.3081 c -0.004,-0.0339 -0.0127,-0.0381 -0.0254,-0.0381 -0.25823,0.004 -0.478362,0.0508 -0.711195,0.18627 -0.474134,0.27516 -0.817034,0.8128 -0.817034,1.26153 0,0.24553 0.122767,0.47413 0.270934,0.47413 0.156633,0 0.5715,-0.44026 0.6731,-0.5461 0.0254,-0.0296 0.0635,-0.055 0.0508,0.0127 -0.02117,0.10584 -0.04657,0.20744 -0.04657,0.32174 0,0.11853 0.03387,0.21166 0.131233,0.21166 0.148167,0 0.414869,-0.3302 0.491069,-0.41486 z m -0.364069,-1.19804 -0.169333,0.84667 c -0.08043,0.0762 -0.5461,0.51223 -0.605367,0.51223 -0.07197,0 -0.1397,-0.127 -0.1397,-0.31326 0,-0.38947 0.1651,-0.76624 0.4191,-0.93557 0.127,-0.0889 0.2667,-0.14817 0.4699,-0.16933 0.04657,-0.004 0.03387,0.0339 0.0254,0.0593 z" />
        <path
           id="path1041"
           style="font-style:normal;font-variant:normal;font-weight:normal;font-stretch:normal;font-size:4.23333311px;font-family:ETbb;-inkscape-font-specification:ETbb;font-variant-ligatures:normal;font-variant-caps:normal;font-variant-numeric:normal;font-feature-settings:normal;text-align:start;letter-spacing:0px;writing-mode:lr-tb;text-anchor:start;fill:#000000;stroke-width:0.26458332"
           d="m 101.80895,248.46403 c 0,-0.11006 -0.0974,-0.17356 -0.23706,-0.17356 -0.59267,0 -0.99484,0.94826 -0.99484,1.4478 0,0.28786 0.15664,0.47836 0.38947,0.47836 0.19897,0 0.46143,-0.14816 0.68157,-0.4064 0.008,-0.0212 0,-0.0466 -0.0296,-0.0677 -0.0127,-0.0169 -0.055,-0.0254 -0.0593,-0.008 -0.14394,0.16934 -0.30904,0.27094 -0.44027,0.27094 -0.18203,0 -0.2413,-0.14817 -0.2413,-0.3429 0,-0.30057 0.1397,-0.7112 0.19473,-0.84667 0.0889,-0.2159 0.1778,-0.31327 0.27517,-0.31327 0.0339,0 0.0677,0.0127 0.11853,0.0381 0.0762,0.0423 0.127,0.0762 0.2159,0.0762 0.0762,0 0.127,-0.0635 0.127,-0.1524 z" />
        <path
           id="path1043"
           style="font-style:normal;font-variant:normal;font-weight:normal;font-stretch:normal;font-size:4.23333311px;font-family:ETbb;-inkscape-font-specification:ETbb;font-variant-ligatures:normal;font-variant-caps:normal;font-variant-numeric:normal;font-feature-settings:normal;text-align:start;letter-spacing:0px;writing-mode:lr-tb;text-anchor:start;fill:#000000;stroke-width:0.26458332"
           d="m 103.47074,249.80177 c 0.008,-0.0169 0.0127,-0.0339 0.0127,-0.0466 0,-0.0296 -0.0169,-0.0508 -0.0339,-0.0508 -0.008,0 -0.0127,0.004 -0.0212,0.0127 -0.008,0.008 -0.0339,0.0296 -0.0593,0.0593 -0.0339,0.0381 -0.13547,0.14816 -0.18627,0.14816 -0.0212,0 -0.0254,-0.0254 -0.0254,-0.0593 0,-0.0762 0.0339,-0.20744 0.0381,-0.22437 l 0.25823,-1.3081 c -0.004,-0.0339 -0.0127,-0.0381 -0.0254,-0.0381 -0.25823,0.004 -0.47836,0.0508 -0.7112,0.18627 -0.47413,0.27516 -0.81703,0.8128 -0.81703,1.26153 0,0.24553 0.12277,0.47413 0.27093,0.47413 0.15664,0 0.5715,-0.44026 0.6731,-0.5461 0.0254,-0.0296 0.0635,-0.055 0.0508,0.0127 -0.0212,0.10584 -0.0466,0.20744 -0.0466,0.32174 0,0.11853 0.0339,0.21166 0.13123,0.21166 0.14817,0 0.41487,-0.3302 0.49107,-0.41486 z m -0.36407,-1.19804 -0.16933,0.84667 c -0.0804,0.0762 -0.5461,0.51223 -0.60537,0.51223 -0.072,0 -0.1397,-0.127 -0.1397,-0.31326 0,-0.38947 0.1651,-0.76624 0.4191,-0.93557 0.127,-0.0889 0.2667,-0.14817 0.4699,-0.16933 0.0466,-0.004 0.0339,0.0339 0.0254,0.0593 z" />
        <path
           id="path1045"
           style="font-style:normal;font-variant:normal;font-weight:normal;font-stretch:normal;font-size:4.23333311px;font-family:ETbb;-inkscape-font-specification:ETbb;font-variant-ligatures:normal;font-variant-caps:normal;font-variant-numeric:normal;font-feature-settings:normal;text-align:start;letter-spacing:0px;writing-mode:lr-tb;text-anchor:start;fill:#000000;stroke-width:0.26458332"
           d="m 104.92568,248.59527 c 0,-0.1397 -0.1778,-0.3048 -0.32597,-0.3048 -0.14393,0 -0.30056,0.0804 -0.43603,0.2159 -0.13123,0.13546 -0.19473,0.25823 -0.19473,0.38523 0,0.11853 0.055,0.23707 0.1651,0.3683 0.12276,0.14393 0.35136,0.36407 0.35136,0.56727 0,0.127 -0.10583,0.2286 -0.23706,0.2286 -0.127,0 -0.2286,-0.0847 -0.3302,-0.14394 -0.0466,-0.0296 -0.10584,-0.055 -0.16087,-0.055 -0.072,0 -0.1397,0.0508 -0.1397,0.16933 0,0.12277 0.14393,0.1905 0.35137,0.1905 0.4318,0 0.71543,-0.22436 0.71543,-0.57573 0,-0.14393 -0.0635,-0.27517 -0.19473,-0.42757 -0.0974,-0.1143 -0.3048,-0.32173 -0.3048,-0.47413 0,-0.12277 0.14393,-0.29633 0.2667,-0.29633 0.0974,0 0.18203,0.13546 0.22436,0.21166 0.0296,0.055 0.072,0.0931 0.11854,0.0931 0.0762,0 0.13123,-0.0677 0.13123,-0.1524 z" />
        <path
           id="path1047"
           style="font-style:normal;font-variant:normal;font-weight:normal;font-stretch:normal;font-size:4.23333311px;font-family:ETbb;-inkscape-font-specification:ETbb;font-variant-ligatures:normal;font-variant-caps:normal;font-variant-numeric:normal;font-feature-settings:normal;text-align:start;letter-spacing:0px;writing-mode:lr-tb;text-anchor:start;fill:#000000;stroke-width:0.26458332"
           d="m 105.59064,250.36903 c 0,0.2159 -0.22436,0.34714 -0.37676,0.4699 -0.0169,0.0127 -0.0254,0.0296 -0.0254,0.0508 0,0.0212 0.0127,0.0381 0.0423,0.0381 0.008,0 0.0169,0 0.0254,-0.004 0.41487,-0.24553 0.6096,-0.50377 0.6096,-0.83397 0,-0.17356 -0.0931,-0.31326 -0.22013,-0.31326 -0.1016,0 -0.19474,0.1016 -0.19474,0.22013 0,0.1397 0.1397,0.2286 0.1397,0.37253 z" />
        <path
           id="path1049"
           style="font-style:normal;font-variant:normal;font-weight:normal;font-stretch:normal;font-family:Coelacanth;-inkscape-font-specification:Coelacanth;letter-spacing:0px"
           d="m 108.35223,247.2279 c -0.2794,0.0127 -0.44873,0.0339 -0.635,0.0339 -0.13123,0 -0.2667,-0.008 -0.4572,-0.0423 l -0.0212,0.16087 c 0.19896,0.0296 0.28363,0.0212 0.37676,0.19473 0.47414,0.8763 0.96097,1.87537 1.15994,2.3495 0.0635,0.1524 0.1143,0.2413 0.11853,0.3556 h 0.19473 c 0.0169,-0.1143 0.0635,-0.25823 0.11007,-0.3683 0.30057,-0.68156 0.99907,-2.12513 1.0922,-2.28176 0.1397,-0.2286 0.2921,-0.23707 0.4572,-0.2413 l -0.0212,-0.1778 c -0.10583,0.0296 -0.28786,0.0466 -0.4826,0.0466 -0.1778,0 -0.36406,-0.0127 -0.51223,-0.0466 l -0.004,0.16933 c 0.0212,0 0.19896,0.008 0.22436,0.008 0.11007,0.008 0.1143,0.10583 0.0847,0.18203 l -0.9271,2.16323 -1.08373,-2.19286 c -0.0254,-0.0593 -0.0593,-0.127 0.072,-0.1524 0.0508,-0.008 0.13547,-0.0127 0.254,-0.008 z" />
        <g
           transform="translate(-0.52916667)"
           id="g1076">
          <path
             inkscape:connector-curvature="0"
             d="m 112.32952,248.5995 c 0,-0.2032 -0.1397,-0.3175 -0.3683,-0.3175 -0.51224,0 -0.99484,0.6477 -0.99484,1.3081 0,0.3556 0.19897,0.62653 0.45297,0.62653 0.1905,0 0.4826,-0.1016 0.7493,-0.3302 0.008,-0.0127 0.0127,-0.0339 0.0127,-0.0508 0,-0.0339 -0.0127,-0.0677 -0.0339,-0.0677 -0.008,0 -0.0212,0.004 -0.0296,0.0127 -0.2159,0.1651 -0.3683,0.24553 -0.508,0.24553 -0.19897,0 -0.33443,-0.15663 -0.33443,-0.4191 0,-0.0762 0.004,-0.14816 0.0212,-0.23283 0,-0.0127 0.008,-0.0339 0.0466,-0.0508 0.3937,-0.1143 0.98637,-0.24977 0.98637,-0.7239 z m -0.23284,0.0296 c 0,0.14394 -0.0889,0.2921 -0.26246,0.38524 -0.1397,0.072 -0.25824,0.10583 -0.41064,0.1397 -0.0466,0.0127 -0.0804,0.008 -0.072,-0.0254 0.0296,-0.1397 0.0593,-0.2159 0.0889,-0.28787 0.0296,-0.0762 0.0677,-0.127 0.10583,-0.2032 0.0762,-0.13547 0.19897,-0.2159 0.3556,-0.2159 0.127,0 0.19473,0.0889 0.19473,0.20743 z"
             style="font-style:normal;font-variant:normal;font-weight:normal;font-stretch:normal;font-size:4.23333311px;font-family:ETbb;-inkscape-font-specification:ETbb;font-variant-ligatures:normal;font-variant-caps:normal;font-variant-numeric:normal;font-feature-settings:normal;text-align:start;letter-spacing:0px;writing-mode:lr-tb;text-anchor:start;fill:#000000;stroke-width:0.26458332"
             id="path1051" />
          <path
             inkscape:connector-curvature="0"
             d="m 113.91258,249.97533 c 0,-0.0466 0.0254,-0.11853 0.0296,-0.1397 l 0.26246,-1.00753 c 0.0212,-0.0889 0.0339,-0.18627 0.0339,-0.2667 0,-0.1651 -0.0635,-0.27093 -0.18203,-0.27093 -0.30057,0 -0.75777,0.6858 -0.93134,0.91016 -0.0339,0.0423 -0.0381,0.0423 -0.0254,-0.0127 0.0466,-0.22436 0.0931,-0.44873 0.13547,-0.67733 0.008,-0.0381 0.0127,-0.0762 0.0127,-0.10583 0,-0.0677 -0.0212,-0.1143 -0.0804,-0.1143 -0.1397,0 -0.46567,0.42756 -0.55457,0.5461 -0.008,0.008 -0.008,0.0212 -0.008,0.0381 0,0.0296 0.0127,0.0677 0.0339,0.0677 0.004,0 0.0127,-0.004 0.0212,-0.0127 0.0254,-0.0381 0.1778,-0.23707 0.21166,-0.25823 0.0423,-0.0254 0.0296,0.0381 0.0296,0.0508 l -0.2794,1.40546 c -0.004,0.0127 -0.004,0.0254 -0.004,0.0339 0,0.0423 0.0339,0.0508 0.072,0.0508 h 0.12277 c 0.072,0 0.0847,-0.004 0.0974,-0.0804 l 0.13547,-0.66464 c 0.12277,-0.16933 0.6477,-0.93556 0.82973,-0.93556 0.0508,0 0.0677,0.0423 0.0677,0.0889 0,0.0466 -0.0169,0.0931 -0.0212,0.11853 l -0.28787,1.13877 c -0.0127,0.0508 -0.0212,0.10583 -0.0212,0.15663 0,0.0974 0.0339,0.18203 0.1397,0.18203 0.13546,0 0.37253,-0.16933 0.58843,-0.46143 0.0212,-0.0296 0.0423,-0.055 0.0423,-0.0804 0,-0.0423 -0.0381,-0.0762 -0.0804,-0.0254 -0.0423,0.055 -0.29633,0.3683 -0.36407,0.3683 -0.0169,0 -0.0254,-0.0212 -0.0254,-0.0423 z"
             style="font-style:normal;font-variant:normal;font-weight:normal;font-stretch:normal;font-size:4.23333311px;font-family:ETbb;-inkscape-font-specification:ETbb;font-variant-ligatures:normal;font-variant-caps:normal;font-variant-numeric:normal;font-feature-settings:normal;text-align:start;letter-spacing:0px;writing-mode:lr-tb;text-anchor:start;fill:#000000;stroke-width:0.26458332"
             id="path1053" />
          <path
             inkscape:connector-curvature="0"
             d="m 115.9758,248.5995 c 0,-0.2032 -0.1397,-0.3175 -0.3683,-0.3175 -0.51223,0 -0.99483,0.6477 -0.99483,1.3081 0,0.3556 0.19897,0.62653 0.45297,0.62653 0.1905,0 0.4826,-0.1016 0.7493,-0.3302 0.008,-0.0127 0.0127,-0.0339 0.0127,-0.0508 0,-0.0339 -0.0127,-0.0677 -0.0339,-0.0677 -0.008,0 -0.0212,0.004 -0.0296,0.0127 -0.2159,0.1651 -0.3683,0.24553 -0.508,0.24553 -0.19897,0 -0.33444,-0.15663 -0.33444,-0.4191 0,-0.0762 0.004,-0.14816 0.0212,-0.23283 0,-0.0127 0.008,-0.0339 0.0466,-0.0508 0.3937,-0.1143 0.98636,-0.24977 0.98636,-0.7239 z m -0.23283,0.0296 c 0,0.14394 -0.0889,0.2921 -0.26247,0.38524 -0.1397,0.072 -0.25823,0.10583 -0.41063,0.1397 -0.0466,0.0127 -0.0804,0.008 -0.072,-0.0254 0.0296,-0.1397 0.0593,-0.2159 0.0889,-0.28787 0.0296,-0.0762 0.0677,-0.127 0.10584,-0.2032 0.0762,-0.13547 0.19896,-0.2159 0.3556,-0.2159 0.127,0 0.19473,0.0889 0.19473,0.20743 z"
             style="font-style:normal;font-variant:normal;font-weight:normal;font-stretch:normal;font-size:4.23333311px;font-family:ETbb;-inkscape-font-specification:ETbb;font-variant-ligatures:normal;font-variant-caps:normal;font-variant-numeric:normal;font-feature-settings:normal;text-align:start;letter-spacing:0px;writing-mode:lr-tb;text-anchor:start;fill:#000000;stroke-width:0.26458332"
             id="path1055" />
          <path
             inkscape:connector-curvature="0"
             d="m 116.31004,250.04307 c 0,-0.0847 0.0169,-0.1651 0.22013,-0.1651 0.1778,0 0.32597,0.0804 0.46567,0.1651 0.1143,0.072 0.254,0.16933 0.3937,0.16933 0.16933,0 0.3937,-0.15663 0.56303,-0.41063 0.004,-0.004 0.004,-0.0127 0.004,-0.0169 0,-0.0212 -0.0169,-0.0508 -0.0423,-0.0508 -0.008,0 -0.0212,0.004 -0.0296,0.0169 -0.11007,0.1651 -0.22013,0.2286 -0.3429,0.2286 -0.12277,0 -0.23283,-0.0762 -0.33867,-0.13547 -0.1143,-0.0677 -0.24553,-0.1397 -0.41486,-0.1397 -0.127,0 -0.2032,0.0254 -0.32597,0.0847 -0.0169,0.008 -0.0296,0.0127 -0.0339,0.0127 -0.004,0 -0.008,0 -0.008,-0.004 0,-0.008 0.0169,-0.0254 0.0254,-0.0339 0.23706,-0.2159 0.6604,-0.38947 0.9525,-0.5461 0.2286,-0.11854 0.78316,-0.52494 0.78316,-0.82974 0,-0.0508 -0.0254,-0.0804 -0.072,-0.0804 -0.0804,0 -0.0804,0.0381 -0.0931,0.0974 -0.0254,0.1143 -0.11006,0.1778 -0.254,0.1778 -0.1397,0 -0.24976,-0.072 -0.3683,-0.1397 -0.127,-0.0762 -0.26246,-0.14394 -0.4191,-0.14394 -0.2159,0 -0.381,0.127 -0.5842,0.3937 -0.008,0.008 -0.008,0.0169 -0.008,0.0254 0,0.0254 0.0254,0.0381 0.0508,0.0381 0.0127,0 0.0254,-0.004 0.0296,-0.0127 0.127,-0.1651 0.18627,-0.2286 0.30903,-0.2286 0.1778,0 0.32174,0.127 0.4826,0.18627 0.072,0.0296 0.1524,0.0508 0.24554,0.0508 0.11006,0 0.2413,-0.0296 0.41063,-0.11007 0.0169,-0.0127 0.0339,-0.0169 0.0423,-0.0169 0.004,0 0.008,0 0.008,0.004 0,0.008 -0.008,0.0254 -0.0296,0.0466 -0.0466,0.0466 -0.1016,0.0889 -0.18627,0.1397 -0.0889,0.055 -0.19897,0.1143 -0.37253,0.20743 -0.37254,0.19897 -0.84667,0.4572 -1.10914,0.80434 -0.0804,0.10583 -0.14393,0.24976 -0.14393,0.30903 0,0.0466 0.0296,0.0804 0.072,0.0804 0.1143,0 0.11853,-0.0593 0.11853,-0.1524 z"
             style="font-style:normal;font-variant:normal;font-weight:normal;font-stretch:normal;font-size:4.23333311px;font-family:ETbb;-inkscape-font-specification:ETbb;font-variant-ligatures:normal;font-variant-caps:normal;font-variant-numeric:normal;font-feature-settings:normal;text-align:start;letter-spacing:0px;writing-mode:lr-tb;text-anchor:start;fill:#000000;stroke-width:0.26458332"
             id="path1057" />
          <path
             inkscape:connector-curvature="0"
             d="m 120.15774,249.68747 c 0.0127,-0.0423 -0.0381,-0.11007 -0.0635,-0.0677 -0.0466,0.0593 -0.1143,0.127 -0.1651,0.18204 -0.0254,0.0296 -0.0804,0.0847 -0.11006,0.0847 -0.0127,0 -0.0212,-0.008 -0.0212,-0.0339 0,-0.0127 0,-0.0296 0.004,-0.0508 l 0.2794,-1.4097 c 0.004,-0.0127 0.004,-0.0254 0.004,-0.0381 0,-0.0339 -0.0127,-0.0677 -0.072,-0.0677 -0.0423,0 -0.0635,0.004 -0.0762,0.004 -0.0127,0 -0.0254,-0.004 -0.0593,-0.004 -0.0593,0 -0.0889,0.0212 -0.0974,0.0677 -0.0254,0.15663 -0.0466,0.32173 -0.0931,0.47413 -0.0847,0.27517 -0.47413,0.8255 -0.6731,1.0033 -0.0635,0.055 -0.10583,0.0762 -0.13123,0.0762 -0.0339,0 -0.0423,-0.0296 -0.0423,-0.0762 0,-0.0423 0.0127,-0.0974 0.0212,-0.14817 l 0.2159,-1.07526 c 0.008,-0.0339 0.0212,-0.1016 0.0212,-0.16087 0,-0.0762 -0.0212,-0.14817 -0.0974,-0.14817 -0.1524,0 -0.49106,0.4318 -0.5461,0.51647 -0.004,0.004 -0.008,0.0127 -0.008,0.0212 0,0.0212 0.0212,0.0466 0.0423,0.0466 0.0127,0 0.0212,-0.004 0.0339,-0.0212 0.0423,-0.0508 0.1651,-0.24977 0.23706,-0.24977 0.0212,0 0.004,0.0635 0,0.0804 l -0.19473,0.98637 c -0.008,0.0466 -0.0381,0.18203 -0.0381,0.3048 0,0.12277 0.0296,0.23283 0.13547,0.23283 0.1905,0 0.56303,-0.41486 0.90593,-0.94403 0.0254,-0.0423 0.0677,-0.0847 0.0466,-0.004 -0.055,0.2159 -0.1397,0.59266 -0.1397,0.8128 0,0.0804 0.0381,0.13546 0.0931,0.13546 0.0931,0 0.36407,-0.24553 0.58843,-0.52916 z"
             style="font-style:normal;font-variant:normal;font-weight:normal;font-stretch:normal;font-size:4.23333311px;font-family:ETbb;-inkscape-font-specification:ETbb;font-variant-ligatures:normal;font-variant-caps:normal;font-variant-numeric:normal;font-feature-settings:normal;text-align:start;letter-spacing:0px;writing-mode:lr-tb;text-anchor:start;fill:#000000;stroke-width:0.26458332"
             id="path1059" />
          <path
             inkscape:connector-curvature="0"
             d="m 121.83798,248.5995 c 0,-0.2032 -0.1397,-0.3175 -0.3683,-0.3175 -0.51223,0 -0.99483,0.6477 -0.99483,1.3081 0,0.3556 0.19896,0.62653 0.45296,0.62653 0.1905,0 0.4826,-0.1016 0.7493,-0.3302 0.008,-0.0127 0.0127,-0.0339 0.0127,-0.0508 0,-0.0339 -0.0127,-0.0677 -0.0339,-0.0677 -0.008,0 -0.0212,0.004 -0.0296,0.0127 -0.2159,0.1651 -0.3683,0.24553 -0.508,0.24553 -0.19896,0 -0.33443,-0.15663 -0.33443,-0.4191 0,-0.0762 0.004,-0.14816 0.0212,-0.23283 0,-0.0127 0.008,-0.0339 0.0466,-0.0508 0.3937,-0.1143 0.98637,-0.24977 0.98637,-0.7239 z m -0.23283,0.0296 c 0,0.14394 -0.0889,0.2921 -0.26247,0.38524 -0.1397,0.072 -0.25823,0.10583 -0.41063,0.1397 -0.0466,0.0127 -0.0804,0.008 -0.072,-0.0254 0.0296,-0.1397 0.0593,-0.2159 0.0889,-0.28787 0.0296,-0.0762 0.0677,-0.127 0.10583,-0.2032 0.0762,-0.13547 0.19897,-0.2159 0.3556,-0.2159 0.127,0 0.19474,0.0889 0.19474,0.20743 z"
             style="font-style:normal;font-variant:normal;font-weight:normal;font-stretch:normal;font-size:4.23333311px;font-family:ETbb;-inkscape-font-specification:ETbb;font-variant-ligatures:normal;font-variant-caps:normal;font-variant-numeric:normal;font-feature-settings:normal;text-align:start;letter-spacing:0px;writing-mode:lr-tb;text-anchor:start;fill:#000000;stroke-width:0.26458332"
             id="path1061" />
          <path
             inkscape:connector-curvature="0"
             d="m 123.06121,246.9993 c 0.004,-0.0254 0.008,-0.0508 0.008,-0.0677 0,-0.0593 -0.0254,-0.0804 -0.0635,-0.0804 -0.0466,0 -0.1143,0.0381 -0.17357,0.072 l -0.42333,0.24977 c -0.0212,0.004 -0.0339,0.0381 -0.0254,0.0677 0.008,0.0339 0.0423,0.0339 0.072,0.0254 0.1397,-0.0804 0.22436,-0.12277 0.2413,-0.12277 0.0212,0 0.0423,0 0.0254,0.0847 l -0.5207,2.6162 c -0.0127,0.0593 -0.0212,0.12277 -0.0212,0.18203 0,0.11007 0.0339,0.19474 0.15663,0.19474 0.13124,0 0.32174,-0.14817 0.54187,-0.4064 0.008,-0.0212 0.0169,-0.0508 -0.004,-0.0677 -0.0169,-0.0169 -0.0508,-0.0127 -0.055,0 -0.16933,0.1905 -0.27093,0.2667 -0.31326,0.2667 -0.0254,0 -0.0339,-0.0169 -0.0339,-0.0466 0,-0.0169 0.004,-0.0381 0.008,-0.0677 z"
             style="font-style:normal;font-variant:normal;font-weight:normal;font-stretch:normal;font-size:4.23333311px;font-family:ETbb;-inkscape-font-specification:ETbb;font-variant-ligatures:normal;font-variant-caps:normal;font-variant-numeric:normal;font-feature-settings:normal;text-align:start;letter-spacing:0px;writing-mode:lr-tb;text-anchor:start;fill:#000000;stroke-width:0.26458332"
             id="path1063" />
          <path
             inkscape:connector-curvature="0"
             d="m 124.75316,249.80177 c 0.008,-0.0169 0.0127,-0.0339 0.0127,-0.0466 0,-0.0296 -0.0169,-0.0508 -0.0339,-0.0508 -0.008,0 -0.0127,0.004 -0.0212,0.0127 -0.008,0.008 -0.0339,0.0296 -0.0593,0.0593 -0.0339,0.0381 -0.13547,0.14816 -0.18627,0.14816 -0.0212,0 -0.0254,-0.0254 -0.0254,-0.0593 0,-0.0762 0.0339,-0.20744 0.0381,-0.22437 l 0.25823,-1.3081 c -0.004,-0.0339 -0.0127,-0.0381 -0.0254,-0.0381 -0.25823,0.004 -0.47836,0.0508 -0.7112,0.18627 -0.47413,0.27516 -0.81703,0.8128 -0.81703,1.26153 0,0.24553 0.12277,0.47413 0.27093,0.47413 0.15664,0 0.5715,-0.44026 0.6731,-0.5461 0.0254,-0.0296 0.0635,-0.055 0.0508,0.0127 -0.0212,0.10584 -0.0466,0.20744 -0.0466,0.32174 0,0.11853 0.0339,0.21166 0.13123,0.21166 0.14817,0 0.41487,-0.3302 0.49107,-0.41486 z m -0.36407,-1.19804 -0.16933,0.84667 c -0.0804,0.0762 -0.5461,0.51223 -0.60537,0.51223 -0.072,0 -0.1397,-0.127 -0.1397,-0.31326 0,-0.38947 0.1651,-0.76624 0.4191,-0.93557 0.127,-0.0889 0.2667,-0.14817 0.4699,-0.16933 0.0466,-0.004 0.0339,0.0339 0.0254,0.0593 z"
             style="font-style:normal;font-variant:normal;font-weight:normal;font-stretch:normal;font-size:4.23333311px;font-family:ETbb;-inkscape-font-specification:ETbb;font-variant-ligatures:normal;font-variant-caps:normal;font-variant-numeric:normal;font-feature-settings:normal;text-align:start;letter-spacing:0px;writing-mode:lr-tb;text-anchor:start;fill:#000000;stroke-width:0.26458332"
             id="path1065" />
        </g>
      </g>
    </g>
    <g
       aria-label="f(x)"
       style="font-style:italic;font-variant:normal;font-weight:normal;font-stretch:normal;font-size:43.54975891px;line-height:11.8772068px;font-family:STEP;-inkscape-font-specification:'STEP Italic';letter-spacing:0px;word-spacing:0px;fill:#000000;fill-opacity:1;stroke:none;stroke-width:1.48465085"
       id="text38"
       transform="matrix(0.72573418,0,0,0.72573418,20.875745,50.549168)">
      <g
         aria-label="Σ f(x)"
         style="font-style:normal;font-variant:normal;font-weight:normal;font-stretch:normal;font-size:36.26542664px;line-height:0px;font-family:'EB Garamond';-inkscape-font-specification:'EB Garamond';text-align:center;letter-spacing:0px;word-spacing:0px;text-anchor:middle;fill:#000000;fill-opacity:1;stroke:none;stroke-width:1.83550549"
         id="text1100">
        <g
           id="g1152"
           transform="translate(6.1054151,0.72914668)"
           style="fill:#1a1a1a">
          <path
             inkscape:connector-curvature="0"
             id="path1118"
             style="font-style:normal;font-variant:normal;font-weight:normal;font-stretch:normal;font-family:ETbb;-inkscape-font-specification:ETbb;stroke-width:1.83550549;fill:#1a1a1a"
             d="m 87.790151,164.46096 c 0,0.9429 1.378084,1.8858 2.864958,1.8858 1.341814,0 2.574841,-0.50771 3.699065,-1.34182 3.952915,-2.86497 4.895812,-8.66743 5.657376,-13.09182 l 1.66821,-9.71913 c 0.1088,-0.18133 0.14506,-0.25386 0.32639,-0.29012 h 2.28472 c 0.14507,0 0.36266,-0.32639 0.50772,-0.72531 0.0725,-0.36266 0.1088,-0.72531 -0.1088,-0.72531 h -2.35725 c -0.18133,-0.0363 -0.25386,-0.14506 -0.25386,-0.29012 l 0.61652,-3.59028 c 0.58024,-3.11883 1.08796,-5.00463 1.74074,-5.9838 0.50771,-0.8341 1.37808,-1.37808 2.10339,-1.37808 1.59568,0 1.70448,1.55941 3.22762,1.55941 0.68905,0 1.34182,-0.21759 1.34182,-1.0517 0,-1.08796 -1.37808,-2.03086 -2.8287,-2.03086 -1.77701,0 -3.69907,0.97917 -5.07716,2.71991 -1.01543,1.19676 -1.66821,2.53858 -2.42978,4.78703 -0.50772,1.52315 -1.051697,3.8804 -1.305557,5.29476 -0.906627,0.25385 -1.269284,0.39891 -2.320981,0.54398 -0.253847,0 -0.471447,0.9429 -0.181317,0.87037 h 1.994591 c 0.21759,0 0.21759,0.32639 0.18132,0.50771 -0.942897,5.58488 -1.922054,12.00386 -3.155078,17.47994 -0.25386,1.23302 -0.507707,2.24845 -0.834097,2.90123 -0.652777,1.23303 -1.849531,2.17593 -2.973758,2.17593 -1.523144,0 -1.668201,-1.77701 -3.263875,-1.77701 -0.50771,0 -1.124227,0.29013 -1.124227,1.26929 z" />
          <path
             inkscape:connector-curvature="0"
             id="path1120"
             style="font-style:normal;font-variant:normal;font-weight:normal;font-stretch:normal;font-family:'Latin Modern Roman';-inkscape-font-specification:'Latin Modern Roman, ';stroke-width:1.39251614;fill:#1a1a1a"
             d="m 115.06087,166.43189 c 0,-0.0826 0,-0.13757 -0.46773,-0.60529 -3.43911,-3.46663 -4.31953,-8.66658 -4.31953,-12.87606 0,-4.78726 1.04549,-9.57452 4.42959,-13.01363 0.35767,-0.33017 0.35767,-0.38519 0.35767,-0.46773 0,-0.19259 -0.11005,-0.27513 -0.27513,-0.27513 -0.27514,0 -2.7513,1.87089 -4.37457,5.36503 -1.40316,3.02642 -1.73331,6.08037 -1.73331,8.39146 0,2.14601 0.30264,5.47507 1.81586,8.58404 1.65077,3.38409 4.01688,5.17244 4.29202,5.17244 0.16508,0 0.27513,-0.0826 0.27513,-0.27513 z" />
          <path
             inkscape:connector-curvature="0"
             id="path1122"
             style="font-style:normal;font-variant:normal;font-weight:normal;font-stretch:normal;font-family:ETbb;-inkscape-font-specification:ETbb;stroke-width:1.58702171;fill:#1a1a1a"
             d="m 132.23728,147.39507 c 0,-1.22288 -0.65848,-1.72457 -1.44237,-1.72457 -0.62712,0 -1.34831,0.31355 -1.91272,0.87796 -1.31694,1.34831 -2.19491,2.66526 -3.32373,4.23305 -0.15678,0.2195 -0.43898,0.5017 -0.53305,0.2195 l -1.0661,-2.82204 c -0.75255,-1.94407 -1.22288,-2.57119 -2.19492,-2.57119 -1.09746,0 -1.94406,0.97203 -3.7,3.95085 -0.0314,0.0627 -0.0627,0.15679 -0.0627,0.2195 0,0.21948 0.15679,0.43897 0.34492,0.43897 0.12542,0 0.25085,-0.0941 0.34492,-0.2822 1.19152,-2.00677 1.59915,-2.50847 2.19491,-2.50847 0.40763,0 0.68983,0.34491 1.12882,1.50508 l 1.59915,3.98221 c 0.0941,0.25084 0.0314,0.31356 -0.0314,0.47034 l -1.37966,1.72458 c -0.37628,0.47033 -1.97542,2.38305 -3.07288,2.38305 -0.78391,0 -0.94069,-1.09746 -1.06611,-1.85 -0.0314,-0.34492 -0.12542,-0.47034 -0.21949,-0.47034 -0.15678,0 -0.37627,0.40762 -0.50169,0.72118 -0.15678,0.43899 -0.68983,1.75594 -0.68983,2.75933 0,0.68983 0.25084,1.22288 1.03474,1.22288 1.59915,0 4.01356,-2.88475 4.92289,-3.98221 l 1.16017,-1.41101 c 0.12542,-0.15679 0.2822,-0.31356 0.40762,-0.0314 l 1.19153,3.01018 c 0.81526,2.03813 1.00339,2.4144 1.94406,2.4144 1.03475,0 1.94408,-0.50169 3.44916,-3.85677 0,-0.28221 -0.0627,-0.53306 -0.18813,-0.62713 -0.12542,-0.12542 -0.31357,-0.0941 -0.43899,0.18814 -0.62712,1.28559 -1.16017,2.19491 -1.88135,2.22627 -0.40763,0 -0.75254,-0.40762 -1.37966,-2.06949 l -1.22288,-3.29237 c -0.0314,-0.0627 -0.0941,-0.31357 0.0941,-0.53305 l 1.63051,-2.25764 c 1.00339,-1.37965 1.81865,-2.03813 2.66526,-2.03813 0.72118,0 1.19152,0.47033 1.3483,1.31695 0.0627,0.21949 0.15678,0.43898 0.28221,0.43898 0.0941,0 0.18813,-0.12543 0.2822,-0.43898 0.21949,-0.81526 0.28221,-1.00339 0.28221,-1.53645 z" />
          <path
             inkscape:connector-curvature="0"
             id="path1124"
             style="font-style:normal;font-variant:normal;font-weight:normal;font-stretch:normal;font-family:'Latin Modern Roman';-inkscape-font-specification:'Latin Modern Roman, ';stroke-width:1.44114256;fill:#1a1a1a"
             d="m 139.96086,153.1006 c 0,-2.22094 -0.31321,-5.66627 -1.87927,-8.88379 -1.70842,-3.50228 -4.15716,-5.35306 -4.44189,-5.35306 -0.17085,0 -0.28474,0.11389 -0.28474,0.28473 0,0.0854 0,0.14237 0.54099,0.6549 2.79043,2.8189 4.41343,7.34622 4.41343,13.29722 0,4.86901 -1.05353,9.88038 -4.58427,13.46807 -0.37015,0.34167 -0.37015,0.39863 -0.37015,0.48405 0,0.17083 0.11389,0.28474 0.28474,0.28474 0.28473,0 2.84737,-1.93621 4.52731,-5.55237 1.45216,-3.13212 1.79385,-6.2927 1.79385,-8.68449 z" />
          <g
             transform="matrix(1.0497097,0,0,1.0497097,-4.8825086,-7.3372807)"
             id="text1129"
             style="font-style:normal;font-variant:normal;font-weight:normal;font-stretch:normal;font-size:10.69415188px;line-height:0px;font-family:'EB Garamond';-inkscape-font-specification:'EB Garamond';text-align:center;letter-spacing:0px;word-spacing:0px;text-anchor:middle;fill:#1a1a1a;fill-opacity:1;stroke:none;stroke-width:0.66917634"
             aria-label="(k)">
            <path
               inkscape:connector-curvature="0"
               id="path1137"
               style="font-style:normal;font-variant:normal;font-weight:normal;font-stretch:normal;font-family:'Latin Modern Roman';-inkscape-font-specification:'Latin Modern Roman, ';stroke-width:0.64497966;fill:#1a1a1a"
               d="m 115.27986,132.83142 c 0,-0.0309 0,-0.0516 -0.17523,-0.22677 -1.28843,-1.29873 -1.61827,-3.24685 -1.61827,-4.82389 0,-1.79349 0.39169,-3.587 1.65951,-4.87543 0.13399,-0.12369 0.13399,-0.1443 0.13399,-0.17523 0,-0.0722 -0.0413,-0.10307 -0.10307,-0.10307 -0.10308,0 -1.03074,0.7009 -1.63889,2.00995 -0.52568,1.13383 -0.64937,2.27796 -0.64937,3.14378 0,0.80398 0.11339,2.05118 0.68029,3.21593 0.61845,1.26781 1.50489,1.9378 1.60797,1.9378 0.0619,0 0.10307,-0.0309 0.10307,-0.10307 z" />
            <path
               inkscape:connector-curvature="0"
               id="path1139"
               style="font-style:normal;font-variant:normal;font-weight:normal;font-stretch:normal;font-family:ETbb;-inkscape-font-specification:ETbb;fill:#1a1a1a"
               d="m 120.01302,126.76818 c -0.5561,0 -1.79662,1.14427 -2.25647,1.57204 -0.1818,0.1818 -0.13902,0.0962 -0.10694,-0.0535 l 1.00525,-4.86584 c 0.0107,-0.0535 0.0214,-0.10694 0.0214,-0.14972 0,-0.10694 -0.0535,-0.14972 -0.11764,-0.14972 -0.0749,0 -0.1818,0.0535 -0.27804,0.10694 l -1.12289,0.65235 c -0.0428,0.0107 -0.0535,0.0428 -0.0535,0.0855 0,0.0749 0.0642,0.1818 0.11763,0.1818 0.0107,0 0.0214,0 0.0321,-0.0107 0.11763,-0.0642 0.24596,-0.14972 0.3636,-0.21389 0.0963,-0.0428 0.14972,-0.0749 0.1711,-0.0749 0.0107,0 0.0214,0.0107 0.0214,0.0321 0,0.0214 -0.0107,0.0642 -0.0214,0.11763 l -1.47579,7.38966 c -0.0107,0.0749 -0.0642,0.21388 0.0642,0.21388 0.13902,0.0107 0.29943,0.0107 0.44915,0.0107 h 0.0535 c 0.0855,0 0.13903,-0.0107 0.17111,-0.21389 l 0.37429,-1.94633 c 0.0321,-0.20319 0.0749,-0.1925 0.13903,-0.12833 0.20319,0.21388 0.40638,0.49193 0.7272,0.99455 0.31013,0.50263 0.5561,0.84484 1.02664,1.16567 0.12833,0.0962 0.25666,0.12833 0.43846,0.12833 0.26735,-0.21389 0.65234,-0.62026 0.9197,-0.96248 0,-0.0107 0.0107,-0.0107 0.0107,-0.0214 0,-0.0642 -0.0855,-0.1925 -0.16041,-0.1925 -0.0214,0 -0.0321,0.0107 -0.0535,0.0321 -0.11764,0.12833 -0.28875,0.33152 -0.45985,0.48124 h -0.0428 c -0.24596,0 -0.58818,-0.29944 -0.84484,-0.68443 l -0.24596,-0.37429 c -0.12833,-0.20319 -0.29944,-0.3743 -0.57749,-0.66304 h 0.21389 c 1.52926,0 2.1816,-0.51332 2.1816,-1.36885 0,-0.5454 -0.27804,-1.0908 -0.68442,-1.0908 z m -2.43827,2.24577 c -0.0107,-0.0214 -0.0855,-0.0535 -0.0642,-0.0855 0.87692,-0.90901 1.818,-1.61482 2.11744,-1.61482 0.28874,0 0.44915,0.26735 0.44915,0.53471 0,0.68442 -0.3636,0.96247 -0.87692,1.08011 -0.22457,0.0535 -0.47054,0.0855 -0.7272,0.0855 z" />
            <path
               inkscape:connector-curvature="0"
               id="path1141"
               style="font-style:normal;font-variant:normal;font-weight:normal;font-stretch:normal;font-family:'Latin Modern Roman';-inkscape-font-specification:'Latin Modern Roman, ';stroke-width:0.64901245;fill:#1a1a1a"
               d="m 124.06277,127.74854 c 0,-0.80902 -0.1141,-2.06401 -0.68454,-3.23604 -0.62232,-1.27575 -1.51431,-1.94992 -1.61802,-1.94992 -0.0623,0 -0.10372,0.0415 -0.10372,0.10372 0,0.0311 0,0.0519 0.19707,0.23856 1.01644,1.02681 1.60764,2.67595 1.60764,4.84368 0,1.7736 -0.38376,3.59905 -1.66988,4.90591 -0.13483,0.12446 -0.13483,0.14521 -0.13483,0.17632 0,0.0623 0.0415,0.10372 0.10372,0.10372 0.10371,0 1.03718,-0.70529 1.64913,-2.02252 0.52897,-1.14091 0.65343,-2.29219 0.65343,-3.16343 z" />
          </g>
        </g>
      </g>
    </g>
    <text
       xml:space="preserve"
       style="font-style:normal;font-variant:normal;font-weight:normal;font-stretch:normal;font-size:4.23333311px;line-height:2.11666656px;font-family:Inconsolata;-inkscape-font-specification:Inconsolata;letter-spacing:0px;word-spacing:0px;fill:#000000;fill-opacity:1;stroke:none;stroke-width:0.26458332"
       x="90.980347"
       y="223.46486"
       id="text853"><tspan
         sodipodi:role="line"
         id="tspan851"
         x="90.980347"
         y="223.46486"
         style="font-style:normal;font-variant:normal;font-weight:normal;font-stretch:normal;font-size:4.23333311px;font-family:Inconsolata;-inkscape-font-specification:Inconsolata;stroke-width:0.26458332">jalb97@gmail.com</tspan></text>
  </g>
</svg>
